<svg width="24" height="24" viewBox="0 0 24 24" fill="none" xmlns="http://www.w3.org/2000/svg">
<path d="M14.4 13.8H13.2V12.6H10.8V13.8H9.6V12.6C9.60032 12.2818 9.72685 11.9768 9.95182 11.7518C10.1768 11.5268 10.4818 11.4003 10.8 11.4H13.2C13.5182 11.4003 13.8232 11.5268 14.0482 11.7518C14.2732 11.9768 14.3997 12.2818 14.4 12.6V13.8Z" fill="#EE2677"/>
<path d="M12 10.8C11.644 10.8 11.296 10.6944 11 10.4966C10.704 10.2988 10.4733 10.0177 10.337 9.68881C10.2008 9.3599 10.1651 8.99798 10.2346 8.64881C10.304 8.29965 10.4755 7.97892 10.7272 7.72718C10.9789 7.47545 11.2997 7.30402 11.6488 7.23456C11.998 7.16511 12.3599 7.20075 12.6888 7.33699C13.0177 7.47323 13.2989 7.70394 13.4966 7.99995C13.6944 8.29596 13.8 8.64397 13.8 8.99998C13.7995 9.47722 13.6097 9.93478 13.2723 10.2722C12.9348 10.6097 12.4772 10.7995 12 10.8ZM12 8.39998C11.8813 8.39998 11.7653 8.43517 11.6667 8.50109C11.568 8.56702 11.4911 8.66073 11.4457 8.77037C11.4003 8.88 11.3884 9.00064 11.4115 9.11703C11.4347 9.23342 11.4918 9.34033 11.5757 9.42424C11.6596 9.50815 11.7666 9.5653 11.8829 9.58845C11.9993 9.6116 12.12 9.59972 12.2296 9.5543C12.3392 9.50889 12.433 9.43199 12.4989 9.33332C12.5648 9.23465 12.6 9.11864 12.6 8.99998C12.5998 8.84089 12.5366 8.68837 12.4241 8.57589C12.3116 8.4634 12.1591 8.40013 12 8.39998Z" fill="#EE2677"/>
<path d="M12 20.4L6.9384 14.4306C6.86807 14.3409 6.79847 14.2507 6.7296 14.16C5.86499 13.021 5.39791 11.6299 5.4 10.2C5.4 8.44955 6.09536 6.77081 7.3331 5.53307C8.57084 4.29533 10.2496 3.59998 12 3.59998C13.7504 3.59998 15.4292 4.29533 16.6669 5.53307C17.9046 6.77081 18.6 8.44955 18.6 10.2C18.6021 11.6293 18.1352 13.0198 17.271 14.1582L17.2704 14.16C17.2704 14.16 17.0904 14.3964 17.0634 14.4282L12 20.4ZM7.6872 13.437C7.6884 13.437 7.8276 13.6218 7.8594 13.6614L12 18.5448L16.146 13.6548C16.1724 13.6218 16.3128 13.4358 16.3134 13.4352C17.0197 12.5046 17.4014 11.3682 17.4 10.2C17.4 8.76781 16.8311 7.3943 15.8184 6.3816C14.8057 5.3689 13.4322 4.79998 12 4.79998C10.5678 4.79998 9.19432 5.3689 8.18162 6.3816C7.16893 7.3943 6.6 8.76781 6.6 10.2C6.59874 11.3689 6.98027 12.506 7.6872 13.437Z" fill="#EE2677"/>
</svg>
