<svg width="20" height="20" viewBox="0 0 20 20" fill="none" xmlns="http://www.w3.org/2000/svg">
<path d="M11.0075 12.8C10.9087 12.8009 10.8108 12.7834 10.7193 12.7486C10.6279 12.7137 10.5448 12.6622 10.475 12.597C10.4037 12.5328 10.3476 12.4555 10.3101 12.3699C10.2727 12.2843 10.2548 12.1924 10.2575 12.1C10.25 11.715 10.58 11.407 10.9925 11.4H11.0075C11.2175 11.4 11.39 11.47 11.54 11.603C11.675 11.736 11.75 11.904 11.75 12.093C11.75 12.282 11.675 12.45 11.5325 12.59C11.39 12.73 11.21 12.8 11.0075 12.8ZM10.3475 10.238C10.3475 9.923 10.4225 9.65 10.565 9.426C10.7075 9.195 10.9625 8.936 11.315 8.642C11.525 8.467 11.675 8.313 11.7725 8.18C11.87 8.047 11.915 7.9 11.915 7.732C11.915 7.529 11.8325 7.361 11.675 7.214C11.5175 7.074 11.3 7.004 11.0375 7.004C10.76 7.004 10.4825 7.074 10.3175 7.214C10.16 7.354 10.0175 7.529 10.0175 7.9H8.75C8.75 7.193 9.095 6.689 9.4775 6.353C9.8975 5.996 10.4375 5.8 11 5.8C11.4425 5.8 11.8325 5.884 12.1775 6.045C12.5225 6.206 12.77 6.43 12.965 6.717C13.16 7.004 13.25 7.319 13.25 7.662C13.25 8.005 13.175 8.292 13.0175 8.537C12.86 8.782 12.6575 9.034 12.35 9.3C12.11 9.51 11.9525 9.692 11.8625 9.839C11.7725 9.986 11.7275 10.182 11.7275 10.406V10.7H10.34V10.238H10.3475ZM15.5 8.74C15.5 6.199 13.5125 4.4 11 4.4C8.4875 4.4 6.5 6.199 6.5 8.74C6.5 10.378 7.9625 12.548 11 15.138C14.0375 12.548 15.5 10.378 15.5 8.74ZM11 3C14.15 3 17 5.254 17 8.74C17 11.064 14.9975 13.815 11 17C7.0025 13.815 5 11.064 5 8.74C5 5.254 7.85 3 11 3Z" fill="#EE2677"/>
</svg>
