<svg width="20" height="20" viewBox="0 0 20 20" fill="none" xmlns="http://www.w3.org/2000/svg">
<path d="M10 1.5C13.4439 1.5 15.5541 2.21791 16.8 3.2837C18.0294 4.33538 18.5 5.79851 18.5 7.5C18.5 9.20149 18.0294 10.6646 16.8 11.7163C15.5541 12.7821 13.4439 13.5 10 13.5C6.55607 13.5 4.44589 12.7821 3.20003 11.7163C1.97064 10.6646 1.5 9.20149 1.5 7.5C1.5 5.79851 1.97064 4.33538 3.20003 3.2837C4.44589 2.21791 6.55607 1.5 10 1.5ZM5.5 9.5C6.60614 9.5 7.5 8.60614 7.5 7.5C7.5 6.39386 6.60614 5.5 5.5 5.5C4.39386 5.5 3.5 6.39386 3.5 7.5C3.5 8.60614 4.39386 9.5 5.5 9.5ZM10 9.5C11.1061 9.5 12 8.60614 12 7.5C12 6.39386 11.1061 5.5 10 5.5C8.89386 5.5 8 6.39386 8 7.5C8 8.60614 8.89386 9.5 10 9.5ZM14.5 9.5C15.6061 9.5 16.5 8.60614 16.5 7.5C16.5 6.39386 15.6061 5.5 14.5 5.5C13.3939 5.5 12.5 6.39386 12.5 7.5C12.5 8.60614 13.3939 9.5 14.5 9.5ZM6 15C6.55386 15 7 15.4461 7 16C7 16.5539 6.55386 17 6 17C5.44614 17 5 16.5539 5 16C5 15.4461 5.44614 15 6 15ZM3 17C3.27386 17 3.5 17.2261 3.5 17.5C3.5 17.7739 3.27386 18 3 18C2.72614 18 2.5 17.7739 2.5 17.5C2.5 17.2261 2.72614 17 3 17Z" stroke="#EE2677"/>
</svg>
