<?xml version="1.0" standalone="no"?>
<!DOCTYPE svg PUBLIC "-//W3C//DTD SVG 20010904//EN"
 "http://www.w3.org/TR/2001/REC-SVG-20010904/DTD/svg10.dtd">
<svg version="1.0" xmlns="http://www.w3.org/2000/svg"
 width="250.000000pt" height="250.000000pt" viewBox="0 0 250.000000 250.000000"
 preserveAspectRatio="xMidYMid meet">
<metadata>
Created by potrace 1.11, written by Peter Selinger 2001-2013
</metadata>
<g transform="translate(0.000000,250.000000) scale(0.100000,-0.100000)"
fill="#000000" stroke="none">
<path d="M239 2484 c-66 -20 -137 -72 -176 -128 -66 -96 -64 -49 -61 -1132 l3
-979 22 -47 c29 -63 100 -138 160 -168 l48 -25 1010 -3 1010 -2 61 30 c72 35
127 92 160 165 l24 52 -2 1009 -3 1009 -25 48 c-30 60 -105 131 -168 160 l-47
22 -985 2 c-832 2 -992 0 -1031 -13z m1105 -406 c21 -19 34 -55 71 -198 101
-392 138 -513 150 -496 7 8 36 77 66 152 30 76 66 150 81 166 32 34 85 39 113
8 9 -10 54 -117 100 -237 l82 -218 156 0 c142 0 158 -2 184 -21 50 -37 43
-106 -12 -130 -41 -17 -377 -20 -420 -4 -30 11 -52 56 -110 223 -21 59 -39
106 -41 105 -2 -2 -33 -78 -70 -168 -36 -91 -75 -178 -86 -193 -42 -59 -111
-56 -142 6 -8 18 -41 129 -71 247 -31 118 -63 240 -72 270 l-17 55 -12 -60
c-7 -33 -56 -287 -109 -565 -53 -278 -102 -520 -110 -538 -26 -57 -96 -65
-134 -15 -11 13 -27 56 -36 96 -43 197 -159 637 -166 630 -4 -4 -16 -33 -26
-63 -28 -86 -45 -92 -275 -88 -171 3 -189 5 -215 24 -29 22 -39 50 -29 90 11
41 40 49 215 54 l164 5 52 148 c29 82 63 159 75 172 27 29 64 39 91 24 33 -17
53 -75 124 -359 37 -146 70 -271 74 -277 6 -11 168 801 202 1012 7 39 16 81
21 95 15 40 49 70 79 70 15 0 39 -10 53 -22z"/>
</g>
</svg>
